<svg fill="currentColor" xmlns="http://www.w3.org/2000/svg" width="20" height="20" viewBox="175 174 675 675"><path fill="currentColor" d="M232.25 260.689C248.716 258.563 269.221 266.14 280.502 278.204C317.811 318.101 280.728 366.703 312.515 411.888C324.148 428.62 341.997 439.998 362.076 443.48C383.552 447.192 405.62 442.172 423.377 429.535C436.198 465.56 454.532 494.802 487.21 516.617C492.862 520.39 499.308 522.881 505.021 526.209C511.715 530.108 518.983 536.344 524.608 541.646C551.725 567.205 567.606 600.297 567.823 637.858C567.898 650.794 567.884 664.409 567.927 677.437C568.015 704.369 570.357 722.569 550.228 743.888C538.74 756.055 523.535 762.395 506.972 762.721C491.748 763.021 475.609 757.527 464.841 746.476C444.436 725.537 445.912 707.063 446.158 680.702C446.336 667.844 446.405 654.984 446.367 642.125C446.279 635.248 446.257 628.342 445.309 621.52C442.518 602.688 432.401 585.721 417.159 574.313C401.021 562.414 380.823 557.398 360.993 560.364C346.702 562.567 333.354 568.855 322.555 578.47C308.429 591.073 300.04 608.886 298.608 627.652C298.063 634.793 298.368 644.086 298.394 651.417L298.519 687.91C298.585 707.861 298.994 721.942 286.29 739.128C276.624 752.141 262.172 760.767 246.131 763.098C230.144 765.222 213.966 760.93 201.134 751.16C185.618 739.186 176.716 721.922 176.91 702.393C176.956 697.759 176.895 693.087 176.902 688.448L176.955 651.505L176.964 526.388L176.959 385.131L176.955 341.161C176.956 328.626 176.085 316.155 179.607 304.018C186.852 279.047 206.934 263.618 232.25 260.689Z"/><path fill="currentColor" d="M500.26 260.676C521.729 258.024 543.869 269.463 556.412 286.591C575.044 312.037 564.719 343.531 569.578 372.995C577.103 418.621 617.657 448.763 663.571 440.229C678.417 437.464 692.158 430.497 703.162 420.156C711.629 412.14 717.196 403.802 721.626 393.02C725.32 384.145 727.585 374.741 728.337 365.158C730.599 338.086 723.504 309.699 739.109 287.092C748.594 273.599 763.005 264.379 779.231 261.422C794.974 258.683 811.954 261.956 825.002 271.364C837.623 280.521 846.143 294.27 848.725 309.648C850.267 319.244 849.672 338.857 849.691 349.092C849.408 360.503 850.148 374.129 849.064 385.221C844.501 431.93 820.749 477.793 779.497 502.043C768.267 508.645 755.301 523.499 747.407 534.455C734.558 552.538 726.063 573.346 722.585 595.255C720.575 608.304 721.04 622.145 721.055 635.383L721.091 683.33C721.096 692.94 721.577 706.052 719.806 715.155C718.056 724.048 714.36 732.443 708.983 739.739C699.795 752.08 686.528 760.56 671.224 762.741C655.506 765.093 639.506 760.974 626.877 751.327C602.01 732.599 602.865 711.26 602.941 683.293L603.029 641.902C603.043 629.769 603.359 617.841 601.62 605.769C596.067 567.224 571.13 531.003 539.63 508.661C528.064 500.457 515.562 494.894 503.886 486.345C472.516 463.377 452.909 429.985 447.435 391.552C445.518 378.088 446.021 362.402 446.042 348.58C446.059 337.017 445.2 320.191 447.477 309.413C449.451 300.021 453.493 291.187 459.309 283.552C469.555 270.103 483.635 262.861 500.26 260.676Z"/></svg>
